<svg width="320" height="180" viewBox="0 0 320 180" fill="none" xmlns="http://www.w3.org/2000/svg">
  <rect width="320" height="180" rx="16" fill="#FFE3E3"/>
  <path d="M160 54C137.909 54 120 71.9086 120 94C120 116.091 137.909 134 160 134C182.091 134 200 116.091 200 94C200 71.9086 182.091 54 160 54ZM160 70C165.523 70 170 74.4772 170 80C170 85.5228 165.523 90 160 90C154.477 90 150 85.5228 150 80C150 74.4772 154.477 70 160 70ZM160 122C149.557 122 140.538 116.233 135.424 107.746C136.162 100.414 147.333 96 160 96C172.667 96 183.838 100.414 184.576 107.746C179.462 116.233 170.443 122 160 122Z" fill="#E53935" fill-opacity="0.45"/>
</svg>
